<?xml version="1.0" standalone="no"?>
<!DOCTYPE svg PUBLIC "-//W3C//DTD SVG 20010904//EN"
 "http://www.w3.org/TR/2001/REC-SVG-20010904/DTD/svg10.dtd">
<svg version="1.0" xmlns="http://www.w3.org/2000/svg"
 width="765.000000pt" height="765.000000pt" viewBox="0 0 765.000000 765.000000"
 preserveAspectRatio="xMidYMid meet">
<metadata>
Created by potrace 1.11, written by Peter Selinger 2001-2013
</metadata>
<g transform="translate(0.000000,765.000000) scale(0.100000,-0.100000)"
fill="#000000" stroke="none">
<path d="M1625 6663 c-344 -45 -645 -191 -875 -424 -77 -78 -158 -181 -196
-249 -10 -19 -21 -37 -24 -40 -24 -22 -122 -270 -136 -343 -3 -18 -12 -63 -19
-102 -24 -139 -11 -438 25 -565 5 -19 8 -36 5 -38 -3 -3 -34 -5 -70 -5 -36 0
-68 -3 -70 -7 -7 -12 -22 -123 -30 -230 -3 -36 -7 -74 -9 -85 -2 -11 -7 -54
-11 -95 -4 -41 -9 -83 -11 -93 -2 -10 -6 -44 -9 -75 -12 -131 -15 -158 -19
-182 -3 -14 -7 -52 -11 -85 -3 -33 -8 -78 -10 -100 -3 -22 -7 -62 -10 -90 -3
-27 -8 -70 -10 -95 -3 -25 -8 -65 -11 -90 -2 -25 -6 -63 -9 -85 -3 -22 -7 -60
-10 -85 -2 -25 -7 -67 -10 -95 -3 -27 -8 -70 -11 -95 -3 -25 -6 -58 -8 -75 -2
-16 -7 -64 -10 -105 -4 -41 -9 -86 -11 -100 -7 -49 -14 -106 -20 -165 -3 -33
-8 -76 -10 -95 -3 -19 -7 -53 -9 -75 -3 -22 -8 -61 -11 -87 l-5 -47 67 -20
c70 -20 738 -212 828 -237 28 -7 82 -22 120 -33 39 -11 192 -54 340 -96 149
-43 275 -78 280 -80 6 -1 17 -5 25 -8 8 -3 35 -11 60 -17 138 -35 145 -38 170
-83 138 -248 396 -524 630 -673 185 -117 410 -215 595 -259 136 -31 155 -35
202 -41 27 -3 62 -7 78 -9 42 -6 321 -5 375 0 500 52 962 292 1280 665 30 35
61 70 67 78 56 60 201 309 262 452 64 146 169 259 306 327 118 59 171 72 322
78 157 6 219 13 338 36 129 26 281 78 397 136 94 47 264 157 328 213 239 208
413 468 500 745 39 127 50 173 68 305 16 110 4 437 -18 495 -4 11 -8 23 -8 28
-1 7 -24 115 -27 127 -1 3 -4 12 -8 20 -3 8 -15 44 -28 80 -30 88 -100 227
-166 330 -233 358 -606 620 -1012 710 -82 18 -113 23 -206 35 -65 8 -213 8
-320 -1 -140 -12 -376 -9 -465 5 -279 47 -516 146 -722 304 -128 97 -171 125
-277 177 -92 46 -226 97 -281 107 -14 2 -41 8 -61 14 -59 15 -97 19 -231 26
-139 6 -274 -6 -403 -38 -83 -20 -98 -26 -225 -78 -107 -44 -182 -58 -285 -55
-107 3 -222 36 -305 88 -132 84 -323 178 -385 191 -5 1 -30 7 -55 14 -49 14
-68 19 -119 27 -18 3 -43 8 -55 11 -26 6 -310 12 -351 6z"/>
</g>
</svg>
