<svg height="512" width="512" xmlns="http://www.w3.org/2000/svg"><linearGradient id="a" gradientUnits="userSpaceOnUse" x1="231.5" x2="231.5" y1="452" y2="60"><stop offset="0" stop-color="#ffe59a"/><stop offset="1" stop-color="#ffffd5"/></linearGradient><linearGradient id="b" gradientUnits="userSpaceOnUse" x1="256" x2="256" y1="512" y2="0"><stop offset="0" stop-color="#fd5900"/><stop offset="1" stop-color="#ffde00"/></linearGradient><path d="M346 60H102v392h244c8.284 0 15-6.716 15-15V75c0-8.284-6.716-15-15-15z" fill="url(#a)"/><path d="M466 211h-75v-15a15 15 0 00-23.32-12.481l-90 60a15.001 15.001 0 000 24.962l90 60A15 15 0 00391 316v-15h75c8.284 0 15-6.716 15-15v-60c0-8.284-6.716-15-15-15zM234.771 2.832A14.996 14.996 0 00221.257.77l-180 60A15 15 0 0031 75v362a14.999 14.999 0 0010.257 14.23l180 60A15 15 0 00241 497V15a15 15 0 00-6.229-12.168zM166 271c-8.284 0-15-6.716-15-15s6.716-15 15-15 15 6.716 15 15-6.716 15-15 15z" fill="url(#b)"/></svg>