<svg height="512" width="512" xmlns="http://www.w3.org/2000/svg" data-name="Layer 1"><path d="M432 52H44a29.786 29.786 0 00-30 29.75v237A30.213 30.213 0 0044 349h259l159-60V81.75A29.786 29.786 0 00432 52z" fill="#3090fc"/><path d="M14 117.75h448v60H14z" fill="#fb6771"/><path d="M147.5 238.25a29.5 29.5 0 010 59h-70a29.5 29.5 0 010-59z" fill="#9be147"/><path d="M292.85 348.75a102.786 102.786 0 11-.37 8.74c0-2.94.12-5.86.37-8.74z" fill="#b3d1e7"/><path d="M440.59 318h-89.9l-7.99 85h105.08z" fill="#e1b7a3"/><path d="M447.78 403.47l-6.57 19.72h-91.14l-7.37-19.72z" fill="#c79a83"/><path d="M372.21 364.06h46.86v17.32h-46.86z" fill="#e75163"/><path d="M44 318.75v-237A29.786 29.786 0 0174 52H44a29.786 29.786 0 00-30 29.75v237A30.213 30.213 0 0044 349h30a30.213 30.213 0 01-30-30.25z" fill="#64b5ff"/><path d="M14 117.75h30v60H14z" fill="#ffa6af"/><path d="M322.48 357.49c0-2.94.12-5.86.37-8.74a102.8 102.8 0 0187.342-92.924A102.746 102.746 0 00292.85 348.75c-.25 2.88-.37 5.8-.37 8.74a102.809 102.809 0 00117.76 101.667 102.784 102.784 0 01-87.76-101.667z" fill="#d2eaf9"/><path d="M415.445 346.429a6 6 0 01-6-6v-33.545a13.8 13.8 0 10-27.608 0v33.545a6 6 0 01-12 0v-33.545a25.8 25.8 0 1151.608 0v33.545a6 6 0 01-6 6z" fill="#e75163"/><g fill="#f4f8fc"><path d="M51.951 150.281h-.057l-6.3-.059a6 6 0 01.055-12h.058l6.295.059a6 6 0 01-.056 12zM226.947 151.265h-.032l-156-.806a6 6 0 01.03-12h.032l156 .806a6 6 0 01-.031 12z"/></g></svg>