<svg viewBox="0 -56 512 512" xmlns="http://www.w3.org/2000/svg"><path d="M10 10.008h492v66.02H10zm0 0" fill="#ffd469"/><path d="M105 276.879H65c-5.523 0-10-4.477-10-10V164.844c0-5.524 4.477-10 10-10h40c5.523 0 10 4.476 10 10v102.035c0 5.523-4.477 10-10 10zm0 0M447 276.879h-40c-5.523 0-10-4.477-10-10V164.844c0-5.524 4.477-10 10-10h40c5.523 0 10 4.476 10 10v102.035c0 5.523-4.477 10-10 10zm0 0" fill="#b2edf7"/><path d="M387 305.89H125c-5.523 0-10-4.48-10-10V135.837c0-5.524 4.477-10 10-10h262c5.523 0 10 4.477 10 10V295.89c0 5.52-4.477 10-10 10zm0 0" fill="#2ec8e3"/><path d="M511.988 9.492C511.718 4.2 507.352 0 502 0H10C4.648 0 .281 4.2.012 9.492 0 9.664 0 9.832 0 10.004v379.992C0 395.52 4.48 400 10 400h492c5.52 0 10-4.48 10-10.004V10.004c0-.172 0-.34-.012-.512zM492 379.992H20V86.027h472zm0-313.972H20V19.887h472zm0 0"/><path d="M171 53.645H91c-5.523 0-10-4.477-10-10 0-5.528 4.477-10.004 10-10.004h80c5.523 0 10 4.476 10 10.004 0 5.523-4.477 10-10 10zm0 0M51.02 53.645c-5.524 0-10.004-4.477-10.004-10 0-5.528 4.472-10.004 9.996-10.004h.008c5.523 0 10 4.476 10 10.004 0 5.523-4.477 10-10 10zm0 0M447 144.844h-40v-9.004c0-11.031-8.969-20.004-20-20.004H125c-11.031 0-20 8.973-20 20.004v9.004H65c-11.031 0-20 8.972-20 20.004v102.03c0 11.036 8.969 20.009 20 20.009h40v9.004c0 11.03 8.969 20.004 20 20.004h262c11.031 0 20-8.973 20-20.004v-9.004h40c11.031 0 20-8.973 20-20.008V164.848c0-11.032-8.969-20.004-20-20.004zM105 266.879H65V164.848h40l.012 102.03H105zm282.012 29.012H125V135.84h262v29.012l.012 102.308zM447 266.879h-40V164.848h40l.012 102.03H447zm0 0"/><path d="M184.64 254.848c-2.5 0-5.003-.934-6.945-2.809l-30-28.98a10.005 10.005 0 010-14.391l30-28.984c3.973-3.836 10.305-3.727 14.14.246 3.837 3.976 3.727 10.308-.245 14.144l-22.555 21.79 22.555 21.784c3.972 3.84 4.082 10.172.246 14.145a9.982 9.982 0 01-7.195 3.055zm0 0M328.36 254.848a9.982 9.982 0 01-7.196-3.055c-3.836-3.973-3.726-10.305.246-14.145l22.555-21.785-22.555-21.789c-3.972-3.836-4.082-10.168-.246-14.144 3.84-3.973 10.168-4.082 14.14-.246l30 28.984a10.005 10.005 0 010 14.39l-30 28.981a9.968 9.968 0 01-6.945 2.809zm0 0M256.02 351.984c-5.524 0-10.004-4.476-10.004-10 0-5.527 4.472-10.004 9.996-10.004h.008c5.523 0 10 4.477 10 10.004 0 5.524-4.477 10-10 10zm0 0M296.02 351.984c-5.524 0-10.004-4.476-10.004-10 0-5.527 4.472-10.004 9.996-10.004h.008c5.523 0 10 4.477 10 10.004 0 5.524-4.477 10-10 10zm0 0M216.02 351.984c-5.524 0-10.004-4.476-10.004-10 0-5.527 4.472-10.004 9.996-10.004h.008c5.523 0 10 4.477 10 10.004 0 5.524-4.477 10-10 10zm0 0"/></svg>