<svg height="512" viewBox="0 0 514.201 514.201" width="512" xmlns="http://www.w3.org/2000/svg"><linearGradient id="a" gradientUnits="userSpaceOnUse" x1="124.601" x2="124.601" y1="57.583" y2="181.221"><stop offset="0" stop-color="#96d1f3"/><stop offset="1" stop-color="#ccfff4"/></linearGradient><linearGradient id="b" gradientUnits="userSpaceOnUse" x1="257.101" x2="257.101" y1="0" y2="514.201"><stop offset="0" stop-color="#174fa3"/><stop offset="1" stop-color="#b044af"/></linearGradient><g fill="#fff"><path d="M490.601 7.5h-467c-8.284 0-15 6.716-15 15V223c0 8.284 6.716 15 15 15h44v94.5l99-94.5h324c8.284 0 15-6.716 15-15V22.5c0-8.284-6.716-15-15-15z"/><path d="M193.601 277.5h297c8.284 0 15 6.716 15 15V442c0 8.284-6.716 15-15 15h-54v45.5l-99-45.5h-144c-8.284 0-15-6.716-15-15V292.5c0-8.284 6.715-15 15-15z"/></g><path d="M124.601 57.583l20.086 40.699 44.914 6.527-32.5 31.679 7.672 44.733-40.172-21.12-40.173 21.12 7.673-44.733-32.5-31.679 44.913-6.527z" fill="url(#a)"/><path d="M149.667 91.427l-25.066-50.791-25.067 50.791-56.051 8.145 40.559 39.535-9.575 55.824 50.133-26.356 50.133 26.356-9.575-55.824 40.559-39.535zm5.145 76.084l-30.211-15.884-30.211 15.884 5.77-33.641-24.441-23.825 33.777-4.907 15.105-30.607 15.105 30.607 33.777 4.907-24.441 23.825zM490.601 0h-467c-12.407 0-22.5 10.094-22.5 22.5V223c0 12.406 10.093 22.5 22.5 22.5h36.5v104.527L169.605 245.5H490.6c12.406 0 22.5-10.094 22.5-22.5V22.5C513.101 10.094 503.007 0 490.601 0zm7.5 223c0 4.136-3.364 7.5-7.5 7.5H163.596l-88.495 84.473V230.5h-51.5c-4.136 0-7.5-3.364-7.5-7.5V22.5c0-4.136 3.364-7.5 7.5-7.5h467c4.136 0 7.5 3.364 7.5 7.5zm-203.5-157h167v15h-167zm-60 31h227v15h-227zm0 31h227v15h-227zm0 31h138v15h-138zm153 0h15v15h-15zm60 0h14v15h-14zm-30 0h15v15h-15zm-129 154h167v15h-167zm-60 31h227v15h-227zm0 31h227v15h-227zm0 31h138v15h-138zm183 0h15v15h-15zm-30 0h15v15h-15zm60 0h14v15h-14zm49-136h-297c-12.407 0-22.5 10.094-22.5 22.5V442c0 12.406 10.093 22.5 22.5 22.5H335.96l108.141 49.701V464.5h46.5c12.406 0 22.5-10.094 22.5-22.5V292.5c0-12.406-10.094-22.5-22.5-22.5zm7.5 172c0 4.136-3.364 7.5-7.5 7.5h-61.5v41.299l-89.86-41.299h-145.64c-4.136 0-7.5-3.364-7.5-7.5V292.5c0-4.136 3.364-7.5 7.5-7.5h297c4.136 0 7.5 3.364 7.5 7.5z" fill="url(#b)"/></svg>