<svg height="512" width="512" xmlns="http://www.w3.org/2000/svg"><path d="M432.52 453.07c0 17.57-18.96 32.63-54.82 43.54C345.08 506.53 301.87 512 256 512s-89.08-5.47-121.7-15.39c-35.86-10.91-54.82-25.97-54.82-43.54s18.96-32.62 54.82-43.53c10.07-3.06 21.16-5.7 33.02-7.89 26.54-4.89 56.98-7.5 88.68-7.5s62.13 2.61 88.67 7.5c11.86 2.18 22.95 4.83 33.03 7.89 35.86 10.91 54.82 25.96 54.82 43.53z" fill="#a4ce39"/><path d="M344.67 401.65l-65.7 65.64c-6.13 6.13-14.29 9.51-22.97 9.51s-16.84-3.38-22.98-9.51l-65.7-65.64c26.54-4.89 56.98-7.5 88.68-7.5s62.13 2.61 88.67 7.5z" fill="#68c044"/><path d="M454.78 198.6c0 41.35-12.6 80.99-36.44 114.63-22.98 32.43-54.64 56.97-91.64 71.03l-65.4 65.35c-1.46 1.46-3.38 2.19-5.3 2.19s-3.84-.73-5.3-2.19l-65.4-65.34c-37-14.07-68.66-38.61-91.64-71.04-23.84-33.64-36.44-73.28-36.44-114.63C57.22 94.41 137.94 8.7 240.19.63 245.41.21 250.68 0 256 0c109.61 0 198.78 89.09 198.78 198.6z" fill="#ed2061"/><path d="M454.78 198.6c0 41.35-12.6 80.99-36.44 114.63-22.98 32.43-54.64 56.97-91.64 71.03l-65.4 65.35 33.78-65.35c36.99-14.06 68.65-38.6 91.63-71.03 23.84-33.64 36.44-73.28 36.44-114.63C423.15 94.41 342.43 8.7 240.19.63 245.41.21 250.68 0 256 0c109.61 0 198.78 89.09 198.78 198.6z" fill="#c71e54"/><path d="M423.15 198.6c0 92.08-74.98 167-167.15 167-5.05 0-10.06-.23-15-.66-85.17-7.61-152.15-79.31-152.15-166.34 0-87.04 66.98-158.73 152.15-166.34 4.94-.43 9.95-.66 15-.66 92.17 0 167.15 74.91 167.15 167z" fill="#eef0f5"/><path d="M423.15 198.6c0 92.08-74.98 167-167.15 167-5.05 0-10.06-.23-15-.66 85.17-7.61 152.15-79.31 152.15-166.34 0-87.04-66.98-158.73-152.15-166.34 4.94-.43 9.95-.66 15-.66 92.17 0 167.15 74.91 167.15 167z" fill="#dae1ea"/><path d="M337.32 169.993l-76.699-60a7.502 7.502 0 00-9.242 0l-76.699 60a7.502 7.502 0 00-2.879 5.907v94.398a7.5 7.5 0 007.5 7.5h153.398a7.5 7.5 0 007.5-7.5V175.9a7.502 7.502 0 00-2.879-5.907z" fill="#f79e60"/><path d="M357.817 177.028l-97.196-76.034a7.502 7.502 0 00-9.242 0l-97.196 76.034a7.5 7.5 0 00-1.286 10.528 7.5 7.5 0 0010.528 1.286L256 116.423l92.575 72.419a7.469 7.469 0 004.616 1.593 7.5 7.5 0 004.626-13.407z" fill="#56788b"/><g fill="#fbdf63"><path d="M221 196.745a7.5 7.5 0 00-7.5 7.5V234.6c0 4.143 3.358 7.5 7.5 7.5s7.5-3.357 7.5-7.5v-30.354a7.5 7.5 0 00-7.5-7.501zM256 196.745a7.5 7.5 0 00-7.5 7.5V234.6c0 4.143 3.358 7.5 7.5 7.5s7.5-3.357 7.5-7.5v-30.354a7.5 7.5 0 00-7.5-7.501zM291 196.745a7.5 7.5 0 00-7.5 7.5V234.6c0 4.143 3.358 7.5 7.5 7.5s7.5-3.357 7.5-7.5v-30.354a7.5 7.5 0 00-7.5-7.501zM256 151.516a7.5 7.5 0 00-7.5 7.5v11.021c0 4.143 3.358 7.5 7.5 7.5s7.5-3.357 7.5-7.5v-11.021a7.5 7.5 0 00-7.5-7.5z"/></g></svg>