<svg height="512" width="512" xmlns="http://www.w3.org/2000/svg"><path d="M48 96h336v304H48z" fill="#ea9d2d"/><path d="M256 176l-40-16-40 16V96h80z" fill="#007af6"/><rect fill="#c38325" height="32" rx="16" width="128" x="152" y="208"/><path d="M80 272h112v96H80z" fill="#eaeae8"/><path d="M128 312h-24a8 8 0 010-16h24a8 8 0 010 16zM152 344h-48a8 8 0 010-16h48a8 8 0 010 16z" fill="#cbcbcb"/><path d="M48 48h336v48H48z" fill="#fbb540"/><path d="M176 48h80v48h-80z" fill="#41b2ff"/><circle cx="384" cy="392" fill="#02a437" r="80"/><path d="M400 360h-40a8 8 0 000 16h40a16 16 0 010 32h-28.686l2.343-2.343a8 8 0 00-11.314-11.314l-16 16a8 8 0 000 11.314l16 16a8 8 0 0011.314-11.314L371.314 424H400a32 32 0 000-64z" fill="#027226"/></svg>