<svg height="512" viewBox="0 0 511.649 511.649" width="512" xmlns="http://www.w3.org/2000/svg"><path d="M253.596 511.649c-59.565 0-115.566-23.196-157.685-65.315s-65.315-98.12-65.315-157.685c0-38.282 9.868-76.05 28.538-109.222 18.091-32.143 44.14-59.57 75.331-79.317a14.998 14.998 0 0122.327 8.157c12.607 39.924 27.322 62.025 41.467 62.304 2.896-.841 15.653-10.185 30.803-43.562 14.568-32.096 24.875-72.41 29.021-113.515C258.856 5.832 265.307 0 273.008 0c50.568 0 103.696 31.402 145.763 86.154 39 50.76 62.283 113.198 62.283 167.023 0 24.403-2.508 48.628-7.455 72.01-8.492 51.484-35.079 98.629-74.89 132.784-40.348 34.615-91.883 53.678-145.113 53.678z" fill="#ff4a4a"/><path d="M418.771 86.154C376.704 31.402 323.576 0 273.008 0c-7.701 0-14.151 5.832-14.924 13.495a414.733 414.733 0 01-2.259 18.192v479.938c52.437-.524 103.1-19.522 142.884-53.653 39.811-34.155 66.398-81.3 74.89-132.784 4.947-23.382 7.455-47.607 7.455-72.01-.001-53.825-23.284-116.264-62.283-167.024z" fill="#d01273"/><path d="M209.332 421.795c-2.545 0-5.124-.648-7.486-2.012-7.174-4.142-9.632-13.316-5.49-20.49l88.5-153.286c4.142-7.175 13.315-9.634 20.49-5.49 7.174 4.142 9.632 13.316 5.49 20.49l-88.5 153.286c-2.778 4.811-7.82 7.502-13.004 7.502zM181.516 336.636a44.712 44.712 0 01-22.424-6.02c-21.488-12.407-28.877-39.983-16.471-61.472 12.406-21.488 39.981-28.877 61.471-16.471 10.41 6.01 17.855 15.714 20.967 27.324 3.111 11.61 1.514 23.737-4.496 34.147-8.326 14.42-23.484 22.491-39.047 22.492zm.101-59.989c-5.188 0-10.241 2.69-13.016 7.498-4.135 7.163-1.672 16.355 5.491 20.491 7.161 4.136 16.354 1.673 20.49-5.491a14.905 14.905 0 001.499-11.383 14.903 14.903 0 00-6.989-9.108 14.918 14.918 0 00-7.475-2.007z" fill="#fff4f4"/><path d="M331.525 414.636a44.712 44.712 0 01-22.424-6.02c-21.488-12.406-28.877-39.982-16.471-61.471s39.982-28.878 61.471-16.471c21.489 12.407 28.878 39.982 16.471 61.471-8.325 14.419-23.483 22.491-39.047 22.491zm.101-59.989c-5.188 0-10.241 2.69-13.016 7.498-4.135 7.163-1.672 16.354 5.491 20.49s16.355 1.673 20.491-5.491c4.135-7.163 1.672-16.355-5.491-20.491a14.911 14.911 0 00-7.475-2.006zM305.346 240.516c-7.175-4.144-16.348-1.685-20.49 5.49l-29.031 50.283v59.999l55.012-95.283c4.142-7.173 1.684-16.347-5.491-20.489z" fill="#f6efea"/></svg>