<svg height="512" width="512" xmlns="http://www.w3.org/2000/svg"><path d="M100.63 49.945v37.003a163.507 163.507 0 0099.429 150.571L243.338 256l-43.279 18.481a163.507 163.507 0 00-99.429 150.571v37.003H256l9.903-221.462L256 49.945z" fill="#daf2fe"/><path d="M411.37 86.948V49.945H256v412.11h155.37v-37.003a163.507 163.507 0 00-99.429-150.571L268.662 256l43.279-18.481A163.506 163.506 0 00411.37 86.948z" fill="#c1e3fd"/><g fill="#7d89e5"><path d="M188.886 365.826c-37.25 15.906-66.814 41.89-88.256 76.259L256 458.831l15.028-60.832L256 337.168zM137.887 190.987c16.345 19.862 37.469 35.984 62.172 46.532l40.956 19.456v39.214H256l9.903-61.606L256 190.987z"/></g><path d="M72.738 0v69.915H256l27.224-34.957L256 0z" fill="#ff9"/><path d="M256 0h183.262v69.915H256z" fill="#ffe14d"/><path d="M270.985 256.976l40.956-19.456c24.702-10.548 45.826-26.67 62.172-46.532H256V296.19h14.985zM323.114 365.826L256 337.168v121.663c.023.037 155.37-16.746 155.37-16.746-21.443-34.369-51.006-60.353-88.256-76.259z" fill="#706bef"/><path d="M72.738 512H256l27.224-34.958L256 442.085H72.738z" fill="#ff9"/><path d="M256 442.085h183.262V512H256z" fill="#ffe14d"/></svg>