<svg viewBox="0 0 512 512.075" xmlns="http://www.w3.org/2000/svg"><g fill="#fdd834"><path d="M281.637 17.176v25.597c0 14.102-11.5 25.602-25.598 25.602-14.101 0-25.601-11.5-25.601-25.602V17.176zm0 0M267.836 119.574h-23.598l11.801-23.597zm0 0M25.637 469.375h460.8c9.399 0 17.102 7.602 17.102 17.102 0 9.398-7.601 17.097-17.101 17.097H25.637c-9.399 0-17.098-7.597-17.098-17.097 0-9.403 7.7-17.102 17.098-17.102zm0 0"/></g><path d="M213.336 128.074h85.3c9.403 0 17.102 7.602 17.102 17.102v324.3H196.336v-324.3c0-9.5 7.601-17.102 17-17.102zm0 0" fill="#6a1b9a"/><path d="M315.738 145.176v324.3H256.04V128.075h42.7c9.398 0 17 7.7 17 17.102zm0 0" fill="#9d27b0"/><path d="M366.938 213.375h85.3c9.399 0 17.098 7.602 17.098 17.102v238.898H349.938V230.477c0-9.403 7.601-17.102 17-17.102zm0 0" fill="#0377bc"/><path d="M469.336 230.477v238.898h-59.7v-256h42.7c9.402.102 17 7.7 17 17.102zm0 0" fill="#02a9f4"/><path d="M59.738 298.773h85.301c9.399 0 17.098 7.602 17.098 17.102v153.602H42.738V315.773c0-9.398 7.598-17 17-17zm0 0" fill="#e91e63"/><path d="M162.137 315.773v153.602h-59.7V298.773h42.7c9.402 0 17 7.602 17 17zm0 0" fill="#ad1457"/><path d="M256.04 170.773c4.698 0 8.5 3.801 8.5 8.5 0 4.704 3.796 8.5 8.5 8.5 4.698 0 8.5-3.796 8.5-8.5 0-14.097-11.5-25.597-25.603-25.597-14 .398-25.199 11.597-25.601 25.597 0 13.801 12.601 20.102 21.8 24.704 7.2 3.597 12.302 6.398 12.302 9.398a9.06 9.06 0 01-8.5 8.5c-4.7 0-8.5-3.8-8.5-8.5s-3.801-8.5-8.5-8.5-8.5 3.8-8.5 8.5c0 14.102 11.5 25.602 25.601 25.602 14-.403 25.2-11.602 25.598-25.602 0-13.8-12.598-20.102-21.801-24.7-7.2-3.6-12.297-6.402-12.297-9.402a9.06 9.06 0 018.5-8.5zm0 0M273.137 273.176c4.699 0 8.5-3.801 8.5-8.5s-3.801-8.5-8.5-8.5h-25.598c-9.402 0-17.101 7.597-17.101 17.097v51.204c0 9.398 7.601 17.097 17.101 17.097h25.598c4.699 0 8.5-3.8 8.5-8.5s-3.801-8.5-8.5-8.5h-25.598v-17.097h25.598c4.699 0 8.5-3.801 8.5-8.5 0-4.704-3.801-8.5-8.5-8.5h-25.598v-17.102h25.598zm0 0M256.04 358.477c-14.103 0-25.603 11.5-25.603 25.597v34.102c0 14.097 11.5 25.597 25.602 25.597 14.098 0 25.598-11.5 25.598-25.597v-34.102c0-14.097-11.5-25.597-25.598-25.597zm8.5 59.699c0 4.699-3.802 8.5-8.5 8.5-4.704 0-8.5-3.801-8.5-8.5v-34.102c0-4.699 3.796-8.5 8.5-8.5 4.698 0 8.5 3.801 8.5 8.5zm0 0"/><path d="M486.438 460.875h-8.5V230.477c0-14.102-11.5-25.602-25.602-25.602h-85.297c-14.101 0-25.601 11.5-25.601 25.602v230.398h-17.102v-315.7c0-14.1-11.5-25.6-25.598-25.6h-11.8l-18.102-36.302c11.8-3.699 21.5-12.296 26.5-23.699 15.703-.097 30.601-7 40.8-18.898 5.903-7 7-16.801 3-25.102-5.097-9.699-15.097-15.699-26-15.5H198.938c-10.898-.199-20.898 5.801-25.898 15.5-4 8.2-2.8 18 3 25.102 10.2 11.898 25.098 18.8 40.797 18.898 5 11.403 14.601 20 26.5 23.7l-18.098 36.3h-11.8c-14.102 0-25.602 11.5-25.602 25.602v315.699h-17.098V315.773c0-14.097-11.5-25.597-25.601-25.597H59.738c-14.101 0-25.601 11.5-25.601 25.597v145.102h-8.5c-14.098 0-25.598 11.5-25.598 25.602 0 14.097 11.5 25.597 25.598 25.597h460.8c14.102 0 25.602-11.5 25.602-25.597 0-14.102-11.5-25.602-25.602-25.602zm-128-230.398c0-4.704 3.8-8.5 8.5-8.5h85.3c4.7 0 8.5 3.796 8.5 8.5v230.398h-102.3zm-34.801-207.5c1.199 2.296.8 5.097-.899 7a35.942 35.942 0 01-24 12.199v-25h14.399c4.3-.301 8.402 2 10.5 5.8zm-135.2 0c2.102-3.801 6.2-6 10.5-5.801h14.399v24.898c-9.297-.699-17.899-5.097-24-12.097-1.7-1.903-2.098-4.704-.899-7zm42 19.796V17.176h51.2v25.597c0 14.102-11.5 25.602-25.598 25.602-14.102 0-25.602-11.5-25.602-25.602zm25.602 53.204l11.797 23.597h-23.598zm-51.203 49.199c0-4.7 3.8-8.5 8.5-8.5h85.3c4.7 0 8.5 3.8 8.5 8.5v315.699h-102.3zM51.238 315.773c0-4.699 3.801-8.5 8.5-8.5h85.301c4.7 0 8.5 3.801 8.5 8.5v145.102H51.24zm435.2 179.204H25.637c-4.7 0-8.5-3.801-8.5-8.5 0-4.704 3.8-8.5 8.5-8.5h460.8c4.7 0 8.5 3.796 8.5 8.5 0 4.699-3.8 8.5-8.5 8.5zm0 0M418.137 29.176l2.5 2.5c3.3 3.199 8.699 3.199 12-.102s3.3-8.597.101-12l-17.101-17c-.801-.8-1.7-1.398-2.801-1.898a8.142 8.142 0 00-6.5 0c-1 .398-2 1.097-2.797 1.898l-17.101 17.102c-3.2 3.3-3.2 8.699.101 12 3.297 3.3 8.598 3.3 12 .097l2.5-2.5v39.102c0 4.7 3.797 8.5 8.5 8.5 4.7 0 8.5-3.8 8.5-8.5v-39.2zm0 0"/><path d="M409.637 93.977c-4.7 0-8.5 3.796-8.5 8.5v17.097c0 4.7 3.8 8.5 8.5 8.5s8.5-3.8 8.5-8.5v-17.097c0-4.704-3.801-8.5-8.5-8.5zm0 0M105.738 145.773a8.175 8.175 0 00-6.5 0c-1 .403-2 1.102-2.8 1.903l-17.102 17.097c-3.2 3.301-3.2 8.704.102 12 3.3 3.301 8.601 3.301 12 .102l2.5-2.5v13.5c0 4.7 3.8 8.5 8.5 8.5s8.5-3.8 8.5-8.5v-13.5l2.5 2.5c3.3 3.2 8.699 3.2 12-.102 3.3-3.296 3.3-8.597.101-12l-17.102-17.097c-.8-.801-1.699-1.5-2.699-1.903zm0 0M102.438 213.375c-4.7 0-8.5 3.8-8.5 8.5v42.7c0 4.698 3.8 8.5 8.5 8.5s8.5-3.802 8.5-8.5v-42.7c0-4.602-3.801-8.5-8.5-8.5zm0 0"/></svg>