<svg viewBox="-7 0 512 512.001" xmlns="http://www.w3.org/2000/svg"><g fill-rule="evenodd"><path d="M335.875 429.516l-96.676-19.586-87.414 19.586-12.062 33.812 98.933 19.582 109.313-19.582zm0 0" fill="#bdbdbd"/><path d="M498.61 393.508l-246.145-19.586L0 393.508v8.242c0 15.281 11.852 27.766 26.32 27.766h445.938c14.5 0 26.351-12.485 26.351-27.766zm0 0M347.969 463.328H121.313c-13.387 0-24.336 10.95-24.336 24.336v17.867c0 3.582 2.921 6.469 6.468 6.469h283.477c3.547 0 6.465-2.887 6.465-6.469v-17.867c0-13.387-10.95-24.336-24.336-24.336zm0 0" fill="#eee"/><path d="M327.063 463.328c13.386 0 24.335 10.95 24.335 24.336v17.867c0 3.582-2.921 6.469-6.468 6.469h41.992c3.547 0 6.465-2.887 6.465-6.469v-17.867c0-13.387-10.946-24.336-24.332-24.336zm0 0M498.61 393.508h-60.794v8.242c0 15.281-11.882 27.766-26.351 27.766h60.793c14.5 0 26.351-12.485 26.351-27.766zm0 0" fill="#bdbdbd"/><path d="M249.395 55.832H26.32C11.852 55.832 0 68.348 0 83.598v309.91h498.61V83.598c0-15.25-11.852-27.766-26.352-27.766zm0 0" fill="#bdbdbd"/><path d="M466.484 96.715V354.34c0 3.726-3.07 6.765-6.77 6.765h-21.898v32.399h60.793V83.598c0-15.25-11.851-27.766-26.351-27.766h-60.793c14.469 0 26.351 12.516 26.351 27.766v6.347h21.899c3.7 0 6.77 3.04 6.77 6.77zm0 0" fill="#949191"/><path d="M459.715 361.105c3.7 0 6.77-3.035 6.77-6.765V96.715c0-3.73-3.07-6.77-6.77-6.77H38.895c-3.73 0-6.77 3.04-6.77 6.77V354.34c0 3.726 3.04 6.765 6.77 6.765zm0 0" fill="#bbdefb"/><path d="M437.816 89.945v271.16h21.899c3.7 0 6.77-3.035 6.77-6.765V96.715c0-3.73-3.07-6.77-6.77-6.77zm0 0" fill="#7fbaeb"/><path d="M334.102 231.121l-88.317-23.582-80.734 23.582v19.133c0 1.656.449 3.219 1.234 4.57 1.594 2.77 4.57 4.637 7.969 4.637h150.64c3.399 0 6.38-1.867 7.973-4.637a9.123 9.123 0 001.23-4.57V231.12zm0 0M251.258 59.113l82.844-30.535V9.203c0-1.984-.633-3.789-1.688-5.293a9.145 9.145 0 00-7.52-3.91h-150.64a9.204 9.204 0 00-9.203 9.203v19.375zm0 0" fill="#eee"/><path d="M334.102 28.578H165.05v202.543H334.1v-179.2zm0 0" fill="#7fbaeb"/><path d="M310.156 9.203v19.375h23.946V9.203c0-1.984-.633-3.789-1.688-5.293a9.145 9.145 0 00-7.52-3.91h-23.972c5.082 0 9.234 4.121 9.234 9.203zm0 0" fill="#bdbdbd"/><path d="M310.156 28.578v202.543h23.946V28.578zm0 0" fill="#5887d9"/><path d="M310.156 231.121v19.133c0 5.055-4.152 9.207-9.234 9.207h23.973c3.398 0 6.378-1.867 7.972-4.633a9.138 9.138 0 001.23-4.574V231.12zm0 0" fill="#bdbdbd"/><path d="M311.781 454.242l3.367 9.086h32.82l-12.093-33.812h-184.09l-6.015 16.906 148.023.027c8.422-.058 14.5-.027 17.988 7.793zm0 0" fill="#949191"/></g><path d="M401.75 159.172h-18.867l5.695-6.086a7.79 7.79 0 00-11.375-10.64l-17.918 19.148a7.827 7.827 0 00-1.37 1.98 7.806 7.806 0 00-.009 6.746 7.735 7.735 0 001.379 2l17.918 19.149a7.753 7.753 0 005.688 2.469 7.763 7.763 0 005.32-2.102 7.793 7.793 0 00.363-11.008l-5.691-6.086h18.867c1.047 0 1.93.887 1.93 1.93v96.086c0 4.3 3.484 7.785 7.785 7.785 4.3 0 7.789-3.484 7.789-7.785v-96.086c0-9.649-7.852-17.5-17.504-17.5zm0 0M145.438 287.68a7.73 7.73 0 00-1.395-2.028l-16.86-18.035c-2.937-3.14-7.867-3.308-11.007-.37s-3.309 7.866-.371 11.007l4.652 4.973h-16.77c-.722 0-1.359-.633-1.359-1.356v-90.61c0-4.3-3.484-7.784-7.785-7.784s-7.79 3.484-7.79 7.785v90.61c0 9.335 7.599 16.929 16.934 16.929h16.77l-4.652 4.976a7.788 7.788 0 00.37 11.004 7.754 7.754 0 005.317 2.102 7.768 7.768 0 005.692-2.469l16.863-18.035a7.78 7.78 0 002.14-5.363c0-1.141-.25-2.282-.75-3.336zm0 0" fill="#666"/></svg>