<svg viewBox="0 -39 512.001 512" xmlns="http://www.w3.org/2000/svg"><path d="M429.816 176.852c-.742 0-1.48.035-2.218.054.207-3.332.328-6.687.328-10.07 0-88.02-71.36-159.379-159.38-159.379-67.148 0-124.585 41.527-148.062 100.293-1.23-.04-2.46-.094-3.707-.094C56.426 107.66 7.5 156.586 7.5 216.937s48.926 109.278 109.277 109.278h313.04c41.246 0 74.683-33.434 74.683-74.68s-33.438-74.683-74.684-74.683zm0 0" fill="#ededed"/><path d="M429.816 176.852c-.742 0-1.48.035-2.218.054.207-3.332.328-6.687.328-10.07 0-88.02-71.36-159.379-159.38-159.379-8.51 0-16.862.672-25.01 1.957 76.155 11.988 134.401 77.902 134.401 157.422 0 3.383-.12 6.738-.328 10.07.739-.023 1.477-.054 2.22-.054 41.245 0 74.683 33.437 74.683 74.683s-33.438 74.68-74.684 74.68h49.988c41.247 0 74.684-33.434 74.684-74.68s-33.438-74.683-74.684-74.683zm0 0" fill="#d6d6d6"/><path d="M380.5 222.094c-24.3-10.086-41.27-32.93-43.594-59.535-.316-3.641-3.41-6.407-7.062-6.387l-73.887.433-1.5.008-73.883.434c-3.695.023-6.715 2.894-6.996 6.578-2.05 26.61-18.77 49.621-42.953 59.96-4.098 1.755-6.559 5.981-6.094 10.411 3.39 32.434 23.145 142.871 130.828 192.543.45.207.942.313 1.434.309a3.415 3.415 0 001.43-.325c107.09-50.93 125.547-161.582 128.558-194.058.414-4.465-2.14-8.652-6.281-10.371zm0 0" fill="#676a75"/><path d="M380.5 222.094c-24.3-10.086-41.27-32.93-43.594-59.535-.316-3.641-3.41-6.407-7.062-6.387l-44.406.262c-.008 34.007 19.44 69.234 45.023 79.875 4.152 1.726 6.75 5.91 6.336 10.39-2.656 28.61-17.309 117.887-93.977 173.559a222.013 222.013 0 0012.54 6.281c.449.207.94.313 1.433.309.496 0 .984-.114 1.43-.325 107.09-50.93 125.547-161.582 128.558-194.058.414-4.465-2.14-8.652-6.281-10.371zm0 0" fill="#3c3f4e"/><path d="M254.258 395.957c-74.297-39.789-95.176-114.594-100.977-150.184a4.954 4.954 0 012.328-5.054 89.75 89.75 0 0040.11-52.75 4.963 4.963 0 014.75-3.645l109.797-.644a4.976 4.976 0 014.796 3.59 89.723 89.723 0 0040.727 52.273 4.964 4.964 0 012.383 5.031c-5.379 35.645-25.387 110.692-99.207 151.356a4.943 4.943 0 01-4.707.027zm0 0" fill="#a4daff"/><path d="M355.79 239.543a89.711 89.711 0 01-40.728-52.273 4.971 4.971 0 00-4.796-3.59l-46.086.27c5.867 23.37 20.804 43.363 41.62 55.593a4.962 4.962 0 012.384 5.027c-4.79 31.746-21.18 94.735-76.844 136.864a184.172 184.172 0 0022.918 14.523 4.943 4.943 0 004.707-.027c73.82-40.668 93.828-115.711 99.207-151.36a4.962 4.962 0 00-2.383-5.027zm0 0" fill="#53b4e4"/><path d="M247.188 322.223l-30.583-29.032a7.503 7.503 0 01-.273-10.605 7.499 7.499 0 0110.602-.274l24.101 22.883 43.559-65.742c2.289-3.453 6.945-4.398 10.394-2.11a7.498 7.498 0 012.11 10.395l-48.493 73.192c-2.488 3.75-8.128 4.453-11.417 1.293zm0 0"/><path d="M252.219 433.39C140.953 381.419 120.586 268.399 117.07 234.82c-.808-7.757 3.453-15.027 10.606-18.086 21.875-9.355 36.597-29.91 38.426-53.644.585-7.649 6.793-13.453 14.43-13.5l149.269-.875h.082c7.488 0 13.847 5.797 14.496 13.238 2.07 23.723 17.016 44.133 38.996 53.258 7.227 2.996 11.598 10.226 10.879 17.988-3.121 33.617-22.133 146.942-132.809 200.14-2.652 1.274-6.57 1.294-9.226.052zm-71.192-268.804c-2.375 29.18-20.53 54.426-47.453 65.941-1.07.457-1.707 1.555-1.586 2.73 3.285 31.411 21.973 137.192 124.758 185.696 102.2-49.703 119.652-155.695 122.57-187.14.11-1.18-.57-2.286-1.691-2.754-27.023-11.215-45.438-36.227-48.148-65.344zm0 0"/><path d="M250.719 402.61c-33.547-18.34-60.36-44.868-79.23-79.708-15.657-28.906-22.567-57.218-25.61-75.879-.824-5.062 1.473-10.043 5.855-12.687 18.043-10.887 31.098-28.055 36.762-48.344 1.488-5.34 6.399-9.094 11.93-9.125l109.797-.644c5.554.004 10.484 3.66 12.039 8.984 5.902 20.219 19.156 37.234 37.328 47.91 4.41 2.594 6.765 7.543 6 12.613-2.82 18.696-9.399 47.082-24.719 76.176-18.46 35.059-44.96 61.899-78.285 80.633-3.168 1.781-7.711 2.344-11.867.07zM160.96 246.27c2.988 17.511 9.516 43.27 23.715 69.492 17.219 31.789 41.402 56.328 71.89 72.96 30.293-16.992 54.188-41.816 71.032-73.804 13.894-26.39 20.117-52.219 22.898-69.758-20.172-12.336-35.027-31.375-42.086-53.926l-106 .621c-6.789 22.63-21.422 41.844-41.45 54.415zm0 0"/><path d="M429.816 333.758h-35.421a7.497 7.497 0 01-7.5-7.5 7.5 7.5 0 017.5-7.5h35.421c37.047 0 67.184-30.137 67.184-67.184 0-37.043-30.137-67.414-67.184-67.183-8.566.054-9.316-5.57-9.394-17.512C419.89 83.137 352.289 15 268.547 15c-61.149 0-118.485 38.965-141.098 95.574-1.172 2.934-4.367 4.621-10.672 4.625C60.657 115.234 15 160.86 15 216.977c0 56.12 45.656 101.78 101.777 101.78a7.5 7.5 0 017.5 7.5 7.5 7.5 0 01-7.5 7.5C52.387 333.758 0 281.372 0 216.978c0-63.973 51.707-116.098 115.527-116.77C151.5 13.695 234.52 0 268.547 0c92.015 0 166.879 74.863 166.879 166.879 0 .898-.012 1.797-.024 2.7C478.125 172.456 512 208.132 512 251.573c0 45.317-36.867 82.184-82.184 82.184zm0 0"/></svg>