<svg viewBox="0 0 512 512" xmlns="http://www.w3.org/2000/svg"><linearGradient id="a" gradientTransform="matrix(1 0 0 -1 0 -17466)" gradientUnits="userSpaceOnUse" x1="0" x2="512" y1="-17722" y2="-17722"><stop offset="0" stop-color="#31d8ff"/><stop offset="1" stop-color="#ff80ff"/></linearGradient><path d="M512 256c0 141.387-114.613 256-256 256S0 397.387 0 256 114.613 0 256 0s256 114.613 256 256zm0 0" fill="url(#a)"/><g fill="#fff"><path d="M416.469 241H280.176l50.281-49.031c5.93-5.785 6.05-15.281.266-21.211-5.782-5.934-15.278-6.051-21.211-.27l-76.676 74.774c-.023.02-.04.047-.063.066-.214.211-.41.438-.613.66-.125.145-.262.278-.383.422-.242.29-.46.598-.68.903-.066.09-.136.171-.199.261a14.92 14.92 0 00-2.511 6.914c-.051.5-.078 1.004-.078 1.512s.027 1.012.078 1.512a14.904 14.904 0 002.511 6.914c.063.09.133.172.196.258.219.308.441.613.683.906.121.144.258.277.383.422.203.222.399.449.613.66.024.02.043.047.067.066l76.672 74.774a14.956 14.956 0 0010.472 4.261c3.903 0 7.801-1.515 10.743-4.527 5.78-5.934 5.664-15.43-.27-21.215L280.176 271h136.293c8.285 0 15-6.715 15-15s-6.715-15-15-15zm0 0"/><path d="M351.086 352.516c-8.285 0-15 6.718-15 15v37.324c0 3.394-2.941 6.16-6.559 6.16H157.09c-3.613 0-6.555-2.766-6.555-6.16V107.16c0-3.394 2.942-6.16 6.555-6.16h172.437c3.618 0 6.559 2.766 6.559 6.16v37.324c0 8.282 6.715 15 15 15 8.281 0 15-6.718 15-15V107.16c0-19.937-16.399-36.16-36.559-36.16H157.09c-20.156 0-36.555 16.223-36.555 36.16v297.68c0 19.937 16.399 36.16 36.555 36.16h172.437c20.157 0 36.559-16.223 36.559-36.16v-37.324c0-8.286-6.719-15-15-15zm0 0"/></g></svg>